<svg xmlns="http://www.w3.org/2000/svg" viewBox="0 0 940.56 177.05" id="svg18"><style id="style2">.st0{fill:#4e56ff}.st1{fill:#48d359}</style><g id="g34" transform="matrix(.94507 0 0 .94507 -60.757 -27.862)" stroke-width="1.05812"><path class="st0" id="polygon4" d="M123.4 164.5L82 164.5 82 81.8 123.4 81.8 123.4 64 82 64 64.2 64 64.2 81.8 64.2 164.5 64.2 182.3 82 182.3 123.4 182.3z"/><path class="st0" id="polygon6" d="M141.2 81.8L182.5 81.8 182.5 164.5 141.2 164.5 141.2 182.3 182.5 182.3 200.3 182.3 200.3 164.5 200.3 81.8 200.3 64 182.5 64 141.2 64z"/><path class="st1" id="rect8" d="M141.2 99.7H164.7V117.5H141.2z"/><path class="st0" id="polygon10" d="M123.4 164.5L141.2 164.5 141.2 99.7 99.9 99.7 99.9 117.5 123.4 117.5z"/><path class="st0" d="M333.4 100.4h30.3c9.8 0 16.6 2.6 20.9 7 3.8 3.7 5.7 8.6 5.7 14.9v.2c0 9.8-5.2 16.3-13.2 19.7l15.3 22.3h-20.5L359 145.1h-7.8v19.4h-17.7v-64.1zm29.5 30.8c6 0 9.5-2.9 9.5-7.6v-.2c0-5-3.7-7.6-9.6-7.6h-11.6v15.4z" id="path12-3"/><path class="st0" d="M415.5 100.4H467v15.1h-33.9v9.7h30.8v14h-30.8v10.2h34.4v15.1h-52z" id="path14-4"/><path class="st0" d="M493.2 100.4H511v64.1h-17.9v-64.1z" id="path16"/><path class="st0" d="M539 100.4h16.6l26.4 33.9v-33.9h17.6v64.1H584l-27.4-35.1v35.1H539z" id="path18"/><path class="st0" d="M649.3 100h17.1l27.3 64.5h-19L670 153h-24.7l-4.6 11.4H622zm15.6 39.2l-7.1-18.2-7.2 18.2z" id="path20"/><path class="st0" d="M711.9 100.4h18.8l11.2 37.1 12.4-37.2h15.3l12.4 37.2 11.2-37.1h18.4L790 164.9h-15.5L761.6 128l-12.8 36.9h-15.5z" id="path22"/><path class="st0" d="M834.8 100.4h51.5v15.1h-33.9v9.7h30.8v14h-30.8v10.2h34.4v15.1h-52z" id="path24"/><path class="st0" d="M912.1 100.4H945c8 0 13.7 2 17.5 5.8 2.6 2.6 4.1 6 4.1 10.3v.2c0 7.4-4.2 11.8-9.9 14.3 7.8 2.6 12.7 7 12.7 15.6v.2c0 11-9 17.7-24.3 17.7h-33zm28.5 25.5c5.4 0 8.4-1.8 8.4-5.6v-.2c0-3.5-2.7-5.5-8-5.5h-11.5v11.3zm2.6 24.3c5.4 0 8.5-2.1 8.5-5.9v-.2c0-3.5-2.8-5.8-8.7-5.8h-13.6v11.8h13.8z" id="path26"/><path class="st1" id="rect28" d="M994.8 144.3H1059.6V162.10000000000002H994.8z"/><path class="st0" id="polygon30" d="M248.8 118.2L272.3 118.2 272.3 164.5 290.1 164.5 290.1 118.2 313.6 118.2 313.6 100.4 290.1 100.4 248.8 100.4z"/><path class="st0" id="polyline32" d="M730.3 100.4L750.3 160.6 735.9 157.9 733.3 164.9 711.9 100.4"/></g></svg>